<?xml version="1.0" encoding="UTF-8"?>
<svg xmlns="http://www.w3.org/2000/svg" version="1.1" viewBox="0 0 151.99 31.63">
  <defs>
    <style>
      .cls-1 {
        fill: #635098;
      }

      .cls-1, .cls-2, .cls-3 {
        fill-rule: evenodd;
      }

      .cls-4 {
        fill: #231f20;
      }

      .cls-2 {
        fill: #db5850;
      }

      .cls-3 {
        fill: #4966a4;
      }
    </style>
  </defs>
  <!-- Generator: Adobe Illustrator 28.7.10, SVG Export Plug-In . SVG Version: 1.2.0 Build 236)  -->
  <g>
    <g id="Layer_1">
      <g>
        <path class="cls-4" d="M0,20.46h9.57c.15,2.33,1.46,4.31,5.35,4.31,2.82,0,4.76-.97,4.76-2.9,0-1.36-.97-2.07-3.6-2.55l-4.91-.88C6.12,17.55.92,15.57.92,9.46.92,2.99,6.85,0,14.82,0s13.8,3.17,13.8,10.21h-9.57c.19-2.64-2.19-3.34-4.47-3.34-3.06,0-3.98,1.41-3.98,2.6,0,.79.48,1.89,2.72,2.33l4.37.79c9.09,1.63,11.76,4.75,11.76,9.24,0,7.17-6.85,9.81-14.58,9.81-8.94,0-14.87-3.65-14.87-11.17"/>
        <polygon class="cls-4" points="33.49 .4 56.47 .4 56.47 7.61 42.67 7.61 42.67 12.76 54.14 12.76 54.14 19.44 42.67 19.44 42.67 31.19 33.49 31.19 33.49 .4"/>
        <path class="cls-4" d="M60.32.4h14.43c7.87,0,11.57,3.03,11.57,7.83,0,3.47-1.75,5.1-4.76,6.03,5.3,1.32,7.19,4.22,7.19,7.79,0,4.88-3.79,9.15-13.17,9.15h-15.26V.4ZM77.08,9.9c0-2.11-1.7-2.55-2.62-2.55h-4.96v5.28h4.96c.92,0,2.62-.53,2.62-2.73M79.22,21.07c0-1.63-.68-3.39-3.99-3.39h-5.74v6.51h5.74c3.3,0,3.99-1.67,3.99-3.12"/>
        <path class="cls-4" d="M92.3.4h14.53c9.67,0,13.61,4.62,13.61,10.73,0,4.18-1.8,7.88-6.27,9.68l6.61,10.38h-9.09l-5.69-9.33h-4.52v9.33h-9.18V.4ZM110.91,11.13c0-1.98-1.22-3.52-4.37-3.52h-5.06v7.04h5.06c3.16,0,4.37-1.54,4.37-3.52"/>
        <polyline class="cls-3" points="144.58 28.36 144.58 .98 141.99 .98 141.99 24.08"/>
        <polyline class="cls-1" points="145.93 27.03 148.36 27.03 148.36 .98 145.87 .98 145.87 24.17"/>
        <path class="cls-2" d="M151.99,31.09V.98h-2.42c0,6.61,0,19.31,0,25.93v3.98"/>
        <polygon class="cls-4" points="124.17 .95 132.45 .95 141.17 15.45 144 19.69 146.6 23.67 151.98 31.09 142.03 31.01 132.45 14.69 132.28 14.69 132.28 31.19 124.17 31.19 124.17 .95"/>
      </g>
    </g>
  </g>
</svg>