<?xml version="1.0" encoding="UTF-8"?>
<!-- Evidence Graph lockup (light/on-navy). Generated from sfbrn-logo-light.svg — text is outlined Arial caps (no font dependency). Keep in sync with sfbrn-logo-eg.svg. -->
<!-- Reverse (light) variant of sfbrn-logo.svg for dark surfaces: letterforms
     go white, the accent strokes lighten one step so they hold >=3:1 contrast
     on the brand navy header (#2A3A62). Keep in sync with the original. -->
<svg xmlns="http://www.w3.org/2000/svg" version="1.1" viewBox="0 0 353.62 31.63">
  <defs>
    <style>
      .cls-1 {
        fill: #9b8cc4;
      }

      .cls-1, .cls-2, .cls-3 {
        fill-rule: evenodd;
      }

      .cls-4 {
        fill: #ffffff;
      }

      .cls-2 {
        fill: #e2706a;
      }

      .cls-3 {
        fill: #7e93bf;
      }
    </style>
  </defs>
  <g>
    <g id="Layer_1">
      <g>
        <path class="cls-4" d="M0,20.46h9.57c.15,2.33,1.46,4.31,5.35,4.31,2.82,0,4.76-.97,4.76-2.9,0-1.36-.97-2.07-3.6-2.55l-4.91-.88C6.12,17.55.92,15.57.92,9.46.92,2.99,6.85,0,14.82,0s13.8,3.17,13.8,10.21h-9.57c.19-2.64-2.19-3.34-4.47-3.34-3.06,0-3.98,1.41-3.98,2.6,0,.79.48,1.89,2.72,2.33l4.37.79c9.09,1.63,11.76,4.75,11.76,9.24,0,7.17-6.85,9.81-14.58,9.81-8.94,0-14.87-3.65-14.87-11.17"/>
        <polygon class="cls-4" points="33.49 .4 56.47 .4 56.47 7.61 42.67 7.61 42.67 12.76 54.14 12.76 54.14 19.44 42.67 19.44 42.67 31.19 33.49 31.19 33.49 .4"/>
        <path class="cls-4" d="M60.32.4h14.43c7.87,0,11.57,3.03,11.57,7.83,0,3.47-1.75,5.1-4.76,6.03,5.3,1.32,7.19,4.22,7.19,7.79,0,4.88-3.79,9.15-13.17,9.15h-15.26V.4ZM77.08,9.9c0-2.11-1.7-2.55-2.62-2.55h-4.96v5.28h4.96c.92,0,2.62-.53,2.62-2.73M79.22,21.07c0-1.63-.68-3.39-3.99-3.39h-5.74v6.51h5.74c3.3,0,3.99-1.67,3.99-3.12"/>
        <path class="cls-4" d="M92.3.4h14.53c9.67,0,13.61,4.62,13.61,10.73,0,4.18-1.8,7.88-6.27,9.68l6.61,10.38h-9.09l-5.69-9.33h-4.52v9.33h-9.18V.4ZM110.91,11.13c0-1.98-1.22-3.52-4.37-3.52h-5.06v7.04h5.06c3.16,0,4.37-1.54,4.37-3.52"/>
        <polyline class="cls-3" points="144.58 28.36 144.58 .98 141.99 .98 141.99 24.08"/>
        <polyline class="cls-1" points="145.93 27.03 148.36 27.03 148.36 .98 145.87 .98 145.87 24.17"/>
        <path class="cls-2" d="M151.99,31.09V.98h-2.42c0,6.61,0,19.31,0,25.93v3.98"/>
        <polygon class="cls-4" points="124.17 .95 132.45 .95 141.17 15.45 144 19.69 146.6 23.67 151.98 31.09 142.03 31.01 132.45 14.69 132.28 14.69 132.28 31.19 124.17 31.19 124.17 .95"/>
      </g>
    </g>
  </g>

    <!-- Evidence Graph lockup -->
    <g id="evidence-graph">
      <rect x="165" y="3.5" width="1.3" height="24.6" rx="0.65" fill="#ffffff" fill-opacity="0.35"/>
      <path fill="#ffffff" d="M183.73 20.40L177.00 20.40L177.00 11.38L183.52 11.38L183.52 12.45L178.19 12.45L178.19 15.21L183.18 15.21L183.18 16.27L178.19 16.27L178.19 19.34L183.73 19.34L183.73 20.40Z M191.38 20.40L190.15 20.40L186.66 11.38L187.95 11.38L190.30 17.93Q190.58 18.72 190.77 19.41L190.77 19.41Q190.98 18.67 191.26 17.93L191.26 17.93L193.69 11.38L194.91 11.38L191.38 20.40Z M199.58 20.40L198.38 20.40L198.38 11.38L199.58 11.38L199.58 20.40Z M207.14 20.40L203.88 20.40L203.88 11.38L206.99 11.38Q208.04 11.38 208.59 11.51L208.59 11.51Q209.37 11.69 209.92 12.16L209.92 12.16Q210.63 12.76 210.98 13.70Q211.34 14.64 211.34 15.84L211.34 15.84Q211.34 16.87 211.10 17.66Q210.86 18.46 210.48 18.98Q210.11 19.50 209.66 19.79Q209.22 20.09 208.58 20.25Q207.95 20.40 207.14 20.40L207.14 20.40ZM205.07 12.45L205.07 19.34L207.00 19.34Q207.89 19.34 208.40 19.17Q208.91 19.00 209.21 18.70L209.21 18.70Q209.63 18.28 209.87 17.56Q210.11 16.84 210.11 15.82L210.11 15.82Q210.11 14.41 209.64 13.65Q209.18 12.89 208.51 12.63L208.51 12.63Q208.03 12.45 206.97 12.45L206.97 12.45L205.07 12.45Z M221.94 20.40L215.20 20.40L215.20 11.38L221.73 11.38L221.73 12.45L216.40 12.45L216.40 15.21L221.39 15.21L221.39 16.27L216.40 16.27L216.40 19.34L221.94 19.34L221.94 20.40Z M226.92 20.40L225.77 20.40L225.77 11.38L227.00 11.38L231.73 18.46L231.73 11.38L232.88 11.38L232.88 20.40L231.65 20.40L226.92 13.31L226.92 20.40Z M243.52 17.24L243.52 17.24L244.71 17.54Q244.34 19.01 243.36 19.78Q242.39 20.55 240.98 20.55L240.98 20.55Q239.52 20.55 238.61 19.96Q237.69 19.37 237.22 18.24Q236.74 17.11 236.74 15.82L236.74 15.82Q236.74 14.41 237.28 13.36Q237.82 12.32 238.81 11.77Q239.80 11.23 241.00 11.23L241.00 11.23Q242.35 11.23 243.27 11.92Q244.20 12.60 244.56 13.85L244.56 13.85L243.38 14.13Q243.07 13.15 242.47 12.70Q241.88 12.25 240.97 12.25L240.97 12.25Q239.93 12.25 239.23 12.75Q238.54 13.24 238.25 14.08Q237.97 14.92 237.97 15.82L237.97 15.82Q237.97 16.97 238.30 17.83Q238.64 18.68 239.35 19.11Q240.06 19.53 240.88 19.53L240.88 19.53Q241.88 19.53 242.58 18.95Q243.27 18.38 243.52 17.24Z M255.14 20.40L248.41 20.40L248.41 11.38L254.93 11.38L254.93 12.45L249.60 12.45L249.60 15.21L254.59 15.21L254.59 16.27L249.60 16.27L249.60 19.34L255.14 19.34L255.14 20.40Z M271.56 16.86L268.91 16.86L268.91 15.80L272.73 15.80L272.73 19.14Q271.85 19.85 270.91 20.20Q269.98 20.55 268.99 20.55L268.99 20.55Q267.67 20.55 266.58 19.98Q265.49 19.42 264.94 18.34Q264.39 17.26 264.39 15.93L264.39 15.93Q264.39 14.62 264.94 13.48Q265.49 12.33 266.52 11.78Q267.55 11.23 268.90 11.23L268.90 11.23Q269.88 11.23 270.67 11.54Q271.46 11.86 271.91 12.43Q272.36 12.99 272.59 13.90L272.59 13.90L271.52 14.20Q271.31 13.51 271.01 13.12Q270.71 12.72 270.15 12.49Q269.59 12.25 268.91 12.25L268.91 12.25Q268.09 12.25 267.49 12.50Q266.90 12.75 266.53 13.15Q266.16 13.56 265.96 14.04L265.96 14.04Q265.62 14.88 265.62 15.86L265.62 15.86Q265.62 17.07 266.03 17.88Q266.45 18.69 267.24 19.08Q268.03 19.48 268.93 19.48L268.93 19.48Q269.70 19.48 270.44 19.18Q271.18 18.88 271.56 18.54L271.56 18.54L271.56 16.86Z M277.90 20.40L276.71 20.40L276.71 11.38L280.71 11.38Q281.91 11.38 282.54 11.62Q283.17 11.87 283.54 12.48Q283.92 13.10 283.92 13.84L283.92 13.84Q283.92 14.80 283.30 15.46Q282.67 16.12 281.38 16.30L281.38 16.30Q281.85 16.52 282.10 16.75L282.10 16.75Q282.62 17.23 283.09 17.95L283.09 17.95L284.66 20.40L283.15 20.40L281.96 18.52Q281.44 17.71 281.10 17.28Q280.76 16.85 280.49 16.68Q280.23 16.51 279.95 16.44L279.95 16.44Q279.75 16.39 279.28 16.39L279.28 16.39L277.90 16.39L277.90 20.40ZM277.90 12.38L277.90 15.36L280.47 15.36Q281.28 15.36 281.75 15.19Q282.21 15.02 282.45 14.65Q282.69 14.28 282.69 13.84L282.69 13.84Q282.69 13.20 282.22 12.79Q281.76 12.38 280.76 12.38L280.76 12.38L277.90 12.38Z M288.26 20.40L287.00 20.40L290.46 11.38L291.75 11.38L295.44 20.40L294.08 20.40L293.03 17.67L289.26 17.67L288.26 20.40ZM290.59 14.05L289.60 16.70L292.66 16.70L291.72 14.20Q291.29 13.06 291.08 12.33L291.08 12.33Q290.90 13.20 290.59 14.05L290.59 14.05Z M299.79 20.40L298.59 20.40L298.59 11.38L301.99 11.38Q302.89 11.38 303.37 11.47L303.37 11.47Q304.03 11.58 304.48 11.89Q304.93 12.20 305.20 12.76Q305.48 13.32 305.48 13.99L305.48 13.99Q305.48 15.14 304.74 15.94Q304.01 16.73 302.10 16.73L302.10 16.73L299.79 16.73L299.79 20.40ZM299.79 12.45L299.79 15.67L302.12 15.67Q303.27 15.67 303.76 15.24Q304.25 14.81 304.25 14.03L304.25 14.03Q304.25 13.46 303.96 13.06Q303.67 12.65 303.21 12.52L303.21 12.52Q302.90 12.45 302.09 12.45L302.09 12.45L299.79 12.45Z M310.43 20.40L309.23 20.40L309.23 11.38L310.43 11.38L310.43 15.08L315.11 15.08L315.11 11.38L316.31 11.38L316.31 20.40L315.11 20.40L315.11 16.15L310.43 16.15L310.43 20.40Z"/>
      <line x1="336.1" y1="15.8" x2="329.3" y2="9.2" stroke="#ffffff" stroke-opacity="0.55" stroke-width="0.9"/>
      <line x1="336.1" y1="15.8" x2="344.1" y2="11.6" stroke="#ffffff" stroke-opacity="0.55" stroke-width="0.9"/>
      <line x1="336.1" y1="15.8" x2="331.5" y2="23.2" stroke="#ffffff" stroke-opacity="0.55" stroke-width="0.9"/>
      <line x1="329.3" y1="9.2" x2="323.3" y2="5.0" stroke="#ffffff" stroke-opacity="0.39" stroke-width="0.7"/>
      <line x1="344.1" y1="11.6" x2="350.9" y2="7.0" stroke="#ffffff" stroke-opacity="0.39" stroke-width="0.7"/>
      <line x1="331.5" y1="23.2" x2="338.5" y2="27.4" stroke="#ffffff" stroke-opacity="0.39" stroke-width="0.7"/>
      <circle cx="329.3" cy="9.2" r="2.1" fill="#7e93bf"/>
      <circle cx="344.1" cy="11.6" r="2.1" fill="#9b8cc4"/>
      <circle cx="331.5" cy="23.2" r="2.1" fill="#e2706a"/>
      <circle cx="323.3" cy="5.0" r="1.3" fill="#7e93bf" fill-opacity="0.75"/>
      <circle cx="350.9" cy="7.0" r="1.3" fill="#9b8cc4" fill-opacity="0.75"/>
      <circle cx="338.5" cy="27.4" r="1.3" fill="#e2706a" fill-opacity="0.75"/>
      <circle cx="336.1" cy="15.8" r="2.5" fill="#ffffff"/>
    </g>
</svg>
